<svg xmlns="http://www.w3.org/2000/svg" viewBox="0 0 66 66"><defs><style>.cls-1{fill:#fff;}</style></defs><title>Asset 15</title><g id="Layer_2" data-name="Layer 2"><g id="Layer_1-2" data-name="Layer 1"><path class="cls-1" d="M18.73,35.58a4.86,4.86,0,0,0,4.16,2.36,1,1,0,0,0,0-2,2.87,2.87,0,0,1-2.61-1.7,1,1,0,0,0-.85-.59,2.84,2.84,0,0,1-2.7-2.84,2.79,2.79,0,0,1,.4-1.43,1,1,0,0,0,0-1,2.79,2.79,0,0,1-.4-1.43,2.87,2.87,0,0,1,2.44-2.82,1,1,0,0,0,.86-1,.38.38,0,0,0,0-.1,2.86,2.86,0,0,1,2.83-2.82l.17,0a1,1,0,0,0,1-.77,5.22,5.22,0,0,1,5.1-4,4.91,4.91,0,0,1,.67.05,1,1,0,0,0,.92-.39,2.83,2.83,0,0,1,4.54,0,1,1,0,0,0,.92.39,4.91,4.91,0,0,1,.67-.05,5.22,5.22,0,0,1,5.11,4,1,1,0,0,0,.87.77,2.84,2.84,0,0,1,2.57,2.83,1,1,0,0,0,1,1,2.85,2.85,0,0,1,2.47,4.29,1,1,0,0,0,0,1,2.9,2.9,0,0,1,.4,1.44,2.85,2.85,0,0,1-2.71,2.84,1,1,0,0,0-.85.59,2.89,2.89,0,0,1-2.61,1.69,1,1,0,0,0,0,2,4.89,4.89,0,0,0,4.16-2.35,4.85,4.85,0,0,0,4-4.77,4.71,4.71,0,0,0-.42-1.94A4.65,4.65,0,0,0,51.27,27a4.87,4.87,0,0,0-3.94-4.78,4.84,4.84,0,0,0-3.6-3.78,7.22,7.22,0,0,0-6.87-4.94h-.38a4.81,4.81,0,0,0-7,0h-.38a7.21,7.21,0,0,0-6.82,4.81,4.87,4.87,0,0,0-4.24,4.08A4.88,4.88,0,0,0,14.73,27a4.65,4.65,0,0,0,.41,1.93,4.65,4.65,0,0,0-.41,1.93A4.85,4.85,0,0,0,18.73,35.58Z"/><path class="cls-1" d="M58.93,53.38a33,33,0,1,0-51.86,0,1,1,0,0,0,.35.44,33,33,0,0,0,51.16,0A1,1,0,0,0,58.93,53.38ZM33,2A31,31,0,0,1,57.45,52H51.28V50.64a3.39,3.39,0,0,0-5.78-2.4,3.38,3.38,0,0,0-2.39-1,3.34,3.34,0,0,0-1.63.44A4.82,4.82,0,0,0,34,45.25V37.11h.54a1.09,1.09,0,0,0,.35-.07L35,37a.77.77,0,0,0,.21-.14l.08-.07a.91.91,0,0,0,.18-.27v0h0l2.82-6.77A1,1,0,1,0,36.43,29l-2.56,6.16H32.13L29.57,29a1,1,0,0,0-1.85.77l2.82,6.77h0v0a.91.91,0,0,0,.18.27l.08.07A.77.77,0,0,0,31,37l.09,0a1.09,1.09,0,0,0,.35.07H32v8.14a4.81,4.81,0,0,0-7.47,2.44,3.41,3.41,0,0,0-1.65-.44,3.37,3.37,0,0,0-2.38,1,3.36,3.36,0,0,0-2.38-1,3.4,3.4,0,0,0-3.4,3.39V52H8.55A31,31,0,0,1,33,2Zm0,62A31,31,0,0,1,10.25,54h5.47a1,1,0,0,0,1-1V50.64a1.39,1.39,0,1,1,2.78,0V53a1,1,0,0,0,2,0V50.64a1.39,1.39,0,1,1,2.78,0V53a1,1,0,0,0,2,0V49.16a2.86,2.86,0,1,1,5.72,0V53a1,1,0,0,0,2,0V50.64h0V49.15a2.87,2.87,0,0,1,5.73,0V53a1,1,0,0,0,2,0V50.64a1.39,1.39,0,1,1,2.77,0V53a1,1,0,0,0,2,0V50.64a1.39,1.39,0,0,1,2.78,0V53a1,1,0,0,0,1,1h5.47A31,31,0,0,1,33,64Z"/></g></g></svg>